HIERARCHY
ROOT Hips
{
     OFFSET 21.05710 96.85650 -40.05100
     CHANNELS 6 Xposition Yposition Zposition Zrotation Xrotation Yrotation
     JOINT Spine
     {
          OFFSET 0.00000 11.89050 0.00000
          CHANNELS 3 Zrotation Xrotation Yrotation
          JOINT Spine1
          {
               OFFSET 0.00000 25.65740 0.12766
               CHANNELS 3 Zrotation Xrotation Yrotation
               JOINT HEad
               {
                    OFFSET 0.00000 8.73416 0.01134
                    CHANNELS 3 Zrotation Xrotation Yrotation
                    End Site
                    {
                         OFFSET -0.29000 12.77420 2.51395
                    }
               }
               JOINT LeftShoulder1
               {
                    OFFSET 8.99000 -0.36225 -0.22000
                    CHANNELS 3 Zrotation Xrotation Yrotation
                    JOINT LeftArm
                    {
                         OFFSET 10.28270 -0.00338 0.32212
                         CHANNELS 3 Zrotation Xrotation Yrotation
                         JOINT LeftForeArm
                         {
                              OFFSET 32.76690 0.09914 -1.42434
                              CHANNELS 3 Zrotation Xrotation Yrotation
                              JOINT LeftHand
                              {
                                   OFFSET 27.56430 0.08536 1.02216
                                   CHANNELS 3 Zrotation Xrotation Yrotation
                                   End Site
                                   {
                                        OFFSET 16.74430 -0.60000 1.50291
                                   }
                              }
                         }
                    }
               }
               JOINT RightShoulder
               {
                    OFFSET -8.99000 -0.36225 -0.22000
                    CHANNELS 3 Zrotation Xrotation Yrotation
                    JOINT RightArm
                    {
                         OFFSET -10.28270 -0.00338 0.32212
                         CHANNELS 3 Zrotation Xrotation Yrotation
                         JOINT RightForeArm
                         {
                              OFFSET -32.89710 0.09914 -1.42434
                              CHANNELS 3 Zrotation Xrotation Yrotation
                              JOINT RightHand
                              {
                                   OFFSET -27.49210 0.08536 1.02216
                                   CHANNELS 3 Zrotation Xrotation Yrotation
                                   End Site
                                   {
                                        OFFSET -16.63120 -0.60000 1.50291
                                   }
                              }
                         }
                    }
               }
          }
     }
     JOINT LeftUpLeg
     {
          OFFSET 8.94580 -8.66707 0.10165
          CHANNELS 3 Zrotation Xrotation Yrotation
          JOINT LeftLeg
          {
               OFFSET 0.00000 -44.42270 1.37270
               CHANNELS 3 Zrotation Xrotation Yrotation
               JOINT LeftFoot
               {
                    OFFSET -0.25355 -42.09240 -1.46059
                    CHANNELS 3 Zrotation Xrotation Yrotation
                    JOINT LeftToes
                    {
                         OFFSET -0.04000 -4.41509 8.49910
                         CHANNELS 3 Zrotation Xrotation Yrotation
                         End Site
                         {
                              OFFSET 0.08000 -0.04745 9.77979
                         }
                    }
               }
          }
     }
     JOINT RightUpLeg
     {
          OFFSET -8.94580 -8.66707 0.10165
          CHANNELS 3 Zrotation Xrotation Yrotation
          JOINT RightLeg
          {
               OFFSET 0.00000 -44.42270 1.37270
               CHANNELS 3 Zrotation Xrotation Yrotation
               JOINT RightFoot
               {
                    OFFSET 0.25355 -42.09240 -1.46059
                    CHANNELS 3 Zrotation Xrotation Yrotation
                    JOINT RightToes
                    {
                         OFFSET 0.04000 -4.41509 8.49910
                         CHANNELS 3 Zrotation Xrotation Yrotation
                         End Site
                         {
                              OFFSET -0.08000 -0.13745 9.77979
                         }
                    }
               }
          }
     }
}
MOTION
Frames: 16
Frame Time: 0.01667
6.97687 96.92530 33.68970 -7.88731 -19.20330 -31.03160 2.23002 8.56049 2.51839 0.34131 17.43310 5.44328 -18.92240 12.33190 6.42151 0.00000 0.00000 0.00000 -67.71540 -33.12560 -36.58590 -7.26796 26.77490 -114.36600 8.48017 9.07918 -7.86099 9.22847 1.10549 5.94640 60.69830 -3.93459 77.19950 9.58111 24.71310 80.06070 -3.19950 9.61694 8.96503 28.45540 -21.13490 -5.38412 -18.74680 36.38850 33.19380 -7.17986 15.07240 1.31300 24.81600 29.76070 -12.22260 -9.73315 -0.64893 -0.17263 1.05211 37.77230 6.00883 15.57290 -26.56010 2.38845 5.88405 22.83690 -10.62060 
8.11258 96.95950 34.38390 -7.93288 -17.57660 -33.90220 2.07294 8.71609 2.16151 0.48565 17.69620 4.63992 -20.07540 10.48660 8.17687 0.00000 0.00000 0.00000 -67.42550 -35.25660 -36.86030 -6.57964 26.04710 -116.85100 6.20313 9.31600 -7.93744 9.14485 1.11466 6.06624 60.55890 -2.98998 78.41610 8.60940 24.54070 80.14300 -1.38391 9.82686 8.71001 28.32720 -19.00700 -6.35366 -16.66190 33.32620 31.53560 -7.07734 14.29630 1.24964 24.30600 29.65580 -10.08570 -9.74388 -2.75387 0.16364 -0.18490 37.40640 8.88860 15.93270 -26.14380 2.39121 6.08385 23.37690 -10.82330 
9.27119 96.98920 35.14860 -7.90085 -16.01350 -36.95480 1.75696 8.86891 1.83100 0.49827 17.94550 3.89469 -21.06000 8.50775 9.97936 0.00000 0.00000 0.00000 -66.47030 -37.92250 -36.96510 -6.25907 25.53590 -118.77900 3.95954 9.55466 -7.90738 8.83994 1.10896 6.19401 60.50580 -1.76690 79.43300 7.47257 24.47240 80.34220 0.04557 9.98528 8.35097 28.22890 -16.95310 -6.78850 -14.78340 31.10480 29.42690 -7.22422 13.72360 1.24526 23.84670 29.41890 -8.83480 -9.69874 -4.79355 0.49029 -1.55783 36.83630 11.96380 16.28990 -25.62350 2.37550 6.18951 23.63120 -11.01310 
10.43490 97.00580 35.95880 -7.77384 -14.51080 -40.10650 1.24229 8.97329 1.57055 0.38028 18.09650 3.27901 -21.78690 6.52031 11.80340 0.00000 0.00000 0.00000 -64.89750 -41.47550 -37.19630 -5.96256 25.46850 -119.82900 2.60964 9.70457 -7.45548 8.44086 1.09026 6.27490 60.63680 -0.51193 80.07240 6.35627 24.66320 80.82560 1.12566 10.09600 7.89444 28.12780 -14.98730 -6.81099 -13.22580 29.59850 27.46950 -7.39112 13.04890 1.23713 23.27040 28.88560 -8.47610 -9.57834 -6.78275 0.75449 -3.04807 36.06390 15.19270 16.62520 -24.96900 2.33285 6.16794 23.54700 -11.07180 
11.58730 96.98760 36.79080 -7.54935 -13.10030 -43.22700 0.52404 9.01468 1.39814 0.15892 18.13880 2.81828 -22.21150 4.63975 13.58790 0.00000 0.00000 0.00000 -63.09630 -46.09750 -38.06840 -5.22529 26.06650 -119.57600 3.35235 9.65483 -6.32688 8.08768 1.06273 6.25503 60.90590 0.57178 80.30210 5.47536 25.13190 81.63350 1.98783 10.17530 7.40191 28.02200 -13.10250 -6.65797 -12.19610 28.55770 26.49270 -7.34603 12.15880 1.17763 22.44380 28.01180 -8.54124 -9.41340 -8.71572 0.90799 -4.56305 35.16480 18.46000 16.96290 -24.20820 2.27053 6.02550 23.15160 -10.97540 
12.72860 96.92520 37.63400 -7.30067 -11.81110 -46.11750 -0.22135 9.01866 1.25755 -0.06991 18.14190 2.43346 -22.39620 2.94955 15.22370 0.00000 0.00000 0.00000 -61.95680 -51.66950 -40.41020 -3.53488 27.49760 -117.54900 6.85343 9.44644 -4.19036 7.81538 1.02893 6.12721 61.22040 1.35509 80.22500 4.92754 25.79110 82.70380 2.78470 10.24190 6.94467 27.95130 -11.25600 -6.57204 -11.83010 27.62820 26.98390 -7.01194 11.23720 1.06944 21.23230 26.77240 -8.30403 -9.24189 -10.48760 0.91341 -5.92493 34.18840 21.53510 17.38080 -23.44110 2.21445 5.86122 22.69560 -10.85090 
13.86700 96.79380 38.48000 -7.12021 -10.66770 -48.53040 -0.80359 9.02557 1.05092 -0.17032 18.18290 1.94479 -22.47340 1.51454 16.67000 0.00000 0.00000 0.00000 -62.95740 -57.69220 -45.49790 -0.74366 30.06640 -113.19100 12.21870 9.40019 -0.68128 7.56220 0.99140 5.94804 61.53050 1.79370 79.96660 4.59171 26.52490 83.96360 3.62826 10.30880 6.54504 27.92800 -9.46902 -6.64338 -12.04720 26.58640 28.80010 -6.55736 10.43070 0.95362 19.44500 24.98440 -7.24713 -9.12659 -12.01420 0.76503 -6.95331 33.30310 24.11740 17.91090 -22.83080 2.19348 5.78639 22.47960 -10.81640 
15.01500 96.56420 39.31850 -7.07717 -9.66683 -50.23280 -1.09824 9.05244 0.67868 -0.02274 18.27810 1.14796 -22.55510 0.38724 18.03380 0.00000 0.00000 0.00000 -67.82640 -63.04230 -54.94270 2.23432 34.19150 -105.40100 17.19790 9.78359 3.52482 7.27825 0.95638 5.80356 61.83050 1.91081 79.58670 4.19616 27.23740 85.37690 4.55408 10.37820 6.16677 27.93230 -7.88268 -6.72916 -12.54640 25.47520 31.31770 -6.19854 9.57418 0.85623 16.73000 22.11110 -5.34106 -9.11470 -13.28110 0.48781 -7.56435 32.72710 25.93220 18.51770 -22.44110 2.21367 5.80426 22.53270 -10.81980 
16.17550 96.23600 40.13060 -7.18236 -8.81004 -51.06890 -1.13347 9.09231 0.09005 0.41838 18.39200 -0.08899 -22.67790 -0.41072 19.47620 0.00000 0.00000 0.00000 -66.75520 -62.88090 -60.69890 3.84655 34.02140 -91.25870 19.56670 10.29560 6.75888 6.96920 0.92978 5.74793 62.15510 1.74411 79.05220 3.55754 27.87910 86.89960 5.50165 10.44280 5.77413 27.89570 -6.67537 -6.51116 -12.92520 24.47360 33.76530 -5.93728 8.40310 0.76385 12.58640 17.22980 -3.13242 -9.24273 -14.29790 0.11998 -7.78791 32.57850 26.82390 19.17190 -22.18140 2.25827 5.82089 22.60470 -10.74940 
17.34010 95.82920 40.90330 -7.41303 -8.10514 -50.98770 -1.00787 9.13032 -0.70747 1.12956 18.48060 -1.77846 -22.79700 -0.94054 21.07570 0.00000 0.00000 0.00000 -44.47120 -50.68540 -51.52040 4.49136 17.48460 -66.61870 17.96380 10.28410 6.91359 6.68336 0.91227 5.76283 62.57120 1.30265 78.25880 2.70765 28.46380 88.45780 6.35126 10.49310 5.38631 27.74910 -6.03941 -5.67004 -12.86230 23.85170 35.45750 -5.61440 6.84528 0.65231 7.01364 10.00990 -1.65865 -9.52627 -15.07620 -0.30292 -7.71550 32.87480 26.79180 19.88880 -21.92890 2.30943 5.75772 22.44790 -10.63380 
18.49090 95.38040 41.63800 -7.72468 -7.56073 -50.04360 -0.83272 9.16140 -1.65691 2.02981 18.52530 -3.81775 -22.84010 -1.36213 22.75710 0.00000 0.00000 0.00000 -26.21070 -36.92930 -48.89300 5.81956 -1.84270 -35.75580 13.16020 9.60216 1.57717 6.52170 0.90325 5.78035 63.12040 0.53843 77.06330 1.77255 29.06620 90.01680 7.01457 10.52620 5.05088 27.45660 -6.13062 -4.07553 -12.24610 23.86490 35.85340 -5.09920 5.08278 0.51996 1.17624 2.15069 -1.54215 -9.97235 -15.62330 -0.73167 -7.42078 33.55000 25.91730 20.71440 -21.57150 2.35198 5.59453 21.96430 -10.58310 
19.60700 94.93610 42.35610 -8.06749 -7.17560 -48.40390 -0.66570 9.19694 -2.65657 3.02816 18.54380 -5.99373 -22.82480 -1.82867 24.28210 0.00000 0.00000 0.00000 -16.37070 -30.93790 -51.35550 6.61936 -12.47110 -8.31461 5.85882 9.49748 -4.68630 6.61031 0.90626 5.75173 63.61100 -0.61113 75.27420 0.81444 29.56720 91.62830 7.54788 10.54950 4.77353 27.02770 -6.98710 -1.87089 -11.16410 24.66160 34.62840 -4.40042 3.38939 0.38795 -3.56515 -4.17213 -2.14913 -10.58080 -15.94200 -1.02927 -6.88454 34.47850 24.24080 21.69150 -21.00570 2.36770 5.34223 21.16970 -10.65990 
20.66230 94.54870 43.08850 -8.39714 -6.95141 -46.32690 -0.49216 9.25644 -3.55548 4.04699 18.57820 -7.98034 -22.89210 -2.33265 25.32520 0.00000 0.00000 0.00000 -14.06050 -31.12950 -55.14450 3.07095 -15.28530 3.44533 -1.78461 10.14330 -7.11749 7.02902 0.92787 5.69208 63.77090 -2.28969 72.61910 -0.06650 29.76250 93.32370 8.09792 10.57470 4.53679 26.48790 -8.43951 0.54694 -9.79875 26.16670 31.88760 -3.67880 1.95954 0.28139 -6.84841 -8.50463 -2.69621 -11.33990 -16.01380 -0.94328 -5.99866 35.49360 21.74570 22.82780 -20.20840 2.34500 5.05036 20.19620 -10.98100 
21.62150 94.27210 43.85600 -8.65006 -6.91333 -44.03720 -0.26941 9.34674 -4.17806 4.99013 18.65950 -9.39683 -23.13000 -2.63912 25.58310 0.00000 0.00000 0.00000 -15.29250 -31.52470 -58.00360 0.37799 -16.01010 4.82742 -5.82540 10.57100 -7.63232 7.83219 0.97656 5.65248 63.63910 -4.92605 68.78050 -0.49029 29.91710 94.97260 8.61612 10.60370 4.40480 25.81080 -10.15570 2.61213 -8.38522 28.02130 28.23440 -3.14658 0.82135 0.21247 -8.83405 -11.15910 -2.95698 -12.25090 -15.79180 -0.26712 -4.69436 36.40180 18.51300 24.07580 -19.24680 2.28285 4.76068 19.14580 -11.78560 
22.44600 94.15010 44.65160 -8.70645 -7.10200 -41.55460 0.01006 9.44820 -4.39388 5.72037 18.77700 -9.95319 -23.36060 -2.39920 24.82000 0.00000 0.00000 0.00000 -17.42270 -29.95590 -59.11650 2.79017 -18.83630 3.65500 -5.14617 10.60810 -9.73092 9.14327 1.06147 5.63962 62.81730 -8.81310 63.39830 0.13765 30.03040 96.25390 8.80688 10.63050 4.55488 24.86600 -11.82440 3.80283 -7.18340 29.68910 24.45020 -2.93374 -0.07823 0.17920 -9.62146 -12.34050 -2.83944 -13.36500 -15.22530 0.92321 -3.10151 37.03820 14.90160 25.32880 -18.15800 2.17084 4.36639 17.72700 -13.26800 
23.10630 94.19600 45.43790 -8.41811 -7.52531 -38.65480 0.32438 9.52134 -4.18472 6.13336 18.87220 -9.59348 -23.17850 -1.43430 22.86140 0.00000 0.00000 0.00000 -20.39990 -27.14360 -59.49000 6.97732 -23.10450 -1.63643 -1.74095 10.27980 -13.64900 11.07110 1.17921 5.57126 60.75600 -14.01970 56.13540 2.61733 30.20070 96.57850 8.26046 10.64640 5.29894 23.47670 -13.30590 3.93257 -6.31620 30.69080 21.01140 -3.05344 -0.69229 0.17453 -9.47079 -12.37270 -2.41538 -14.74310 -14.29440 2.22636 -1.57734 37.40030 11.55470 26.49690 -16.95190 1.99915 3.61969 15.37500 -15.47120 
